# xmcd
#
# Track frame offsets:
#	150
#	11666
#	23691
#	40084
#	51536
#	64893
#	76250
#	91147
#	105256
#	122834
#	129987
#	144163
#	156689
#	168179
#	185091
#	199195
#	210970
#	228782
#	242709
#	255636
#
# Disc length: 3647 seconds
# Revision: 2
# Processed by: cddbd v1.5.2PL0 Copyright (c) Steve Scherf et al.
# Submitted via: dBpowerAMP V12.0
#
DISCID=050e3d14
DTITLE=B.W. Stevenson - My Maria, Tracks 1-10 - Calabasas, Tracks 11-20
DYEAR=2009
DGENRE=Country
TTITLE0=My Maria
TTITLE1=Be My Woman Tonight
TTITLE2=Sunset Woman
TTITLE3=A Good Love Is Like a Good Song
TTITLE4=Grab on Hold of My Soul
TTITLE5=Shambala
TTITLE6=Lucky Touch
TTITLE7=I Got to Boogie
TTITLE8=Remember Me
TTITLE9=Pass This Way
TTITLE10=Look for the Light
TTITLE11=A Little Bit of Understanding
TTITLE12=We Had It All
TTITLE13=(Livin' It) Day by Day
TTITLE14=Dry Land
TTITLE15=Anna-Lisa
TTITLE16=Please Come to Boston
TTITLE17=Roll On
TTITLE18=Song for Katy
TTITLE19=Here We Go Again
EXTD=
EXTT0=
EXTT1=
EXTT2=
EXTT3=
EXTT4=
EXTT5=
EXTT6=
EXTT7=
EXTT8=
EXTT9=
EXTT10=
EXTT11=
EXTT12=
EXTT13=
EXTT14=
EXTT15=
EXTT16=
EXTT17=
EXTT18=
EXTT19=
PLAYORDER=
